<svg xmlns="http://www.w3.org/2000/svg" viewBox="0 0 160 160" width="160" height="160">
  <defs>
    <mask id="ring">
      <polygon points="0,-72 62,-36 62,36 0,72 -62,36 -62,-36" fill="white"/>
      <circle cx="0" cy="0" r="48" fill="black"/>
    </mask>
  </defs>
  <g transform="translate(80, 80)">
    <!-- Hexagon ring with transparent center -->
    <g mask="url(#ring)">
      <polygon points="0,-72 62,-36 62,36 0,72 -62,36 -62,-36" fill="#0F62FE"/>
    </g>
    <!-- Gear teeth -->
    <rect x="-6" y="-78" width="12" height="12" rx="2" fill="#0F62FE"/>
    <rect x="56" y="-42" width="12" height="12" rx="2" fill="#0F62FE" transform="rotate(60, 62, -36)"/>
    <rect x="56" y="30" width="12" height="12" rx="2" fill="#0F62FE" transform="rotate(120, 62, 36)"/>
    <rect x="-6" y="66" width="12" height="12" rx="2" fill="#0F62FE" transform="rotate(180, 0, 72)"/>
    <rect x="-68" y="30" width="12" height="12" rx="2" fill="#0F62FE" transform="rotate(240, -62, 36)"/>
    <rect x="-68" y="-42" width="12" height="12" rx="2" fill="#0F62FE" transform="rotate(300, -62, -36)"/>
    <!-- Plug prongs -->
    <rect x="-18" y="-28" width="10" height="36" rx="3" fill="#0F62FE"/>
    <rect x="8" y="-28" width="10" height="36" rx="3" fill="#0F62FE"/>
    <rect x="-5" y="6" width="10" height="20" rx="3" fill="#0F62FE"/>
  </g>
</svg>
