<svg xmlns="http://www.w3.org/2000/svg" viewBox="30 26 104 104" width="160" height="160">
  <!-- Plugwerk Logomark: 3 gestapelte Plugin-Stecker -->

  <!-- Plugin 3 (hinten) -->
  <g transform="translate(33, 32) scale(3.5)" opacity="0.3">
    <path d="M13.11 4.36L9.87 7.6L8 5.73l3.24-3.24c.18-.18.7-.12 1.56.32c.28.28.42.98.31 1.55m-8 1.77l.91-1.12l9.01 9.01l-1.19.84c-.4.4-2.2.9-3.82 1.16H6.14L4.9 17.26c-.3.3-1.3.4-2.12 0a1.1 1.1 0 0 1 0-2.12l1.24-1.24v-3.88c0-.8.25-2.7 1.09-3.89m7.26 3.97l3.24-3.24c.18-.18.7-.12 1.55.31c.28.28.42.98.31 1.55l-3.24 3.25z" fill="#0F62FE"/>
  </g>

  <!-- Plugin 2 (mitte) -->
  <g transform="translate(49, 48) scale(3.5)" opacity="0.6">
    <path d="M13.11 4.36L9.87 7.6L8 5.73l3.24-3.24c.18-.18.7-.12 1.56.32c.28.28.42.98.31 1.55m-8 1.77l.91-1.12l9.01 9.01l-1.19.84c-.4.4-2.2.9-3.82 1.16H6.14L4.9 17.26c-.3.3-1.3.4-2.12 0a1.1 1.1 0 0 1 0-2.12l1.24-1.24v-3.88c0-.8.25-2.7 1.09-3.89m7.26 3.97l3.24-3.24c.18-.18.7-.12 1.55.31c.28.28.42.98.31 1.55l-3.24 3.25z" fill="#0F62FE"/>
  </g>

  <!-- Plugin 1 (vorne) -->
  <g transform="translate(65, 64) scale(3.5)">
    <path d="M13.11 4.36L9.87 7.6L8 5.73l3.24-3.24c.18-.18.7-.12 1.56.32c.28.28.42.98.31 1.55m-8 1.77l.91-1.12l9.01 9.01l-1.19.84c-.4.4-2.2.9-3.82 1.16H6.14L4.9 17.26c-.3.3-1.3.4-2.12 0a1.1 1.1 0 0 1 0-2.12l1.24-1.24v-3.88c0-.8.25-2.7 1.09-3.89m7.26 3.97l3.24-3.24c.18-.18.7-.12 1.55.31c.28.28.42.98.31 1.55l-3.24 3.25z" fill="#0F62FE"/>
  </g>
</svg>
