<svg xmlns="http://www.w3.org/2000/svg" viewBox="0 0 400 100" width="400" height="100">
  <defs>
    <mask id="ring">
      <polygon points="0,-40 35,-20 35,20 0,40 -35,20 -35,-20" fill="white"/>
      <circle cx="0" cy="0" r="27" fill="black"/>
    </mask>
  </defs>
  <g transform="translate(50, 50)">
    <!-- Hexagon ring with transparent center -->
    <g mask="url(#ring)">
      <polygon points="0,-40 35,-20 35,20 0,40 -35,20 -35,-20" fill="#0F62FE"/>
    </g>
    <!-- Gear teeth -->
    <rect x="-3.5" y="-44" width="7" height="7" rx="1.5" fill="#0F62FE"/>
    <rect x="31" y="-23.5" width="7" height="7" rx="1.5" fill="#0F62FE" transform="rotate(60, 35, -20)"/>
    <rect x="31" y="16.5" width="7" height="7" rx="1.5" fill="#0F62FE" transform="rotate(120, 35, 20)"/>
    <rect x="-3.5" y="37" width="7" height="7" rx="1.5" fill="#0F62FE" transform="rotate(180, 0, 40)"/>
    <rect x="-38.5" y="16.5" width="7" height="7" rx="1.5" fill="#0F62FE" transform="rotate(240, -35, 20)"/>
    <rect x="-38.5" y="-23.5" width="7" height="7" rx="1.5" fill="#0F62FE" transform="rotate(300, -35, -20)"/>
    <!-- Plug prongs (inside the transparent ring, over whatever background) -->
    <rect x="-10" y="-16" width="6" height="20" rx="2" fill="#0F62FE"/>
    <rect x="4" y="-16" width="6" height="20" rx="2" fill="#0F62FE"/>
    <rect x="-3" y="3" width="6" height="11" rx="2" fill="#0F62FE"/>
  </g>
  <!-- Wordmark: Plug in black, werk in brand -->
  <text x="105" y="60" font-family="Inter, system-ui, sans-serif" font-weight="700" font-size="36" fill="#161616" letter-spacing="-0.5">Plug<tspan fill="#0F62FE">werk</tspan></text>
</svg>
