<svg width="500" height="560" viewBox="0 0 500 560" xmlns="http://www.w3.org/2000/svg">
<defs>
  <mask id="m">
    <rect width="500" height="560" fill="white"/>
    <circle cx="250" cy="305" r="90" fill="black"/>
    <rect x="214" y="60" width="72" height="200" fill="black"/>
  </mask>
</defs>

<g fill="#0F62FE" mask="url(#m)">
  <circle cx="250" cy="305" r="168"/>
  <rect x="228" y="79"  width="44" height="62" rx="0"/>
  <rect x="228" y="79"  width="44" height="62" rx="0" transform="rotate(30 250 305)"/>
  <rect x="228" y="79"  width="44" height="62" rx="0" transform="rotate(60 250 305)"/>
  <rect x="228" y="79"  width="44" height="62" rx="0" transform="rotate(90 250 305)"/>
  <rect x="228" y="79"  width="44" height="62" rx="0" transform="rotate(120 250 305)"/>
  <rect x="228" y="79"  width="44" height="62" rx="0" transform="rotate(150 250 305)"/>
  <rect x="228" y="79"  width="44" height="62" rx="0" transform="rotate(180 250 305)"/>
  <rect x="228" y="79"  width="44" height="62" rx="0" transform="rotate(210 250 305)"/>
  <rect x="228" y="79"  width="44" height="62" rx="0" transform="rotate(240 250 305)"/>
  <rect x="228" y="79"  width="44" height="62" rx="0" transform="rotate(270 250 305)"/>
  <rect x="228" y="79"  width="44" height="62" rx="0" transform="rotate(300 250 305)"/>
  <rect x="228" y="79"  width="44" height="62" rx="0" transform="rotate(330 250 305)"/>
</g>

<path d="M 203,155 L 203,85 Q 203,55 220,55 Q 237,55 237,85 L 237,155 Z" fill="#0F62FE"/>
<path d="M 263,155 L 263,85 Q 263,55 280,55 Q 297,55 297,85 L 297,155 Z" fill="#0F62FE"/>
<rect x="196" y="137" width="48" height="45" fill="#0F62FE"/>
<rect x="256" y="137" width="48" height="45" fill="#0F62FE"/>
</svg>
